<svg viewBox="0 0 500 500" xmlns="http://www.w3.org/2000/svg"><g fill="none" stroke-width="2"><path d="m472.59 143.84q-.27-.05-.32.23-.02.14.06.34 18.3 40.02 21.09 84.16" stroke="#577e13"/><path d="m493.42 228.57q-.1.15-.35.12-.18-.03-.32-.16c-39.03-39-78.1-78.06-117.5-116.84-28.34-27.89-65.38-45.08-104.57-50.37q-9.12-1.23-18.91-1.38-12.17-.18-19.02.38-58.74 4.79-103.23 41.23-44.83 36.71-61.14 93.4-5.21 18.08-6.2 38.11-.41 8.16-.23 17.95.18 9.74 1.29 17.44 9.17 63.23 53 106.8 56.53 56.21 113.17 112.75" stroke="#679617"/><path d="m229.41 488q-72.55-5.52-129.46-47.45-39.55-29.15-65.04-71.2-.32-.53-.74-.27" stroke="#577e13"/><path d="m493.42 228.57q.37.52.38.93.47 15.35.15 30.26c-.07 3.12-.92 6.07-.98 9.22q-.06 3.12-.8 6.79-.19.94-.33 1.97-8 58.92-43.13 108.03-5.72 8-12.34 15.72-51.34 59.86-128.34 79.96c-6.78 1.77-14.11 3.06-21.29 4.35q-1.23.22-2.49.29c-2.14.11-4 .88-6.2.89-3.01.02-5.62.87-8.75.97q-4.09.14-9.37.64-7.37.69-26.42-.17-2.23-.1-4.1-.42" stroke="#43620f"/><path d="m121.62 238.64c2.4-65.48 53.93-116.78 118.78-120.37a.52.51 88.9 0 0 .49-.52v-55.03a.32.32 0 0 0 -.33-.32c-58.29 2.21-111.36 31.04-144.33 78.98q-29.77 43.28-31.92 97.22-.03.65.63.65h56.04q.61 0 .64-.61" stroke="#2a3d09"/><path d="m251.52 118.22c30.1 1.37 57.99 12.73 80.12 32.87q.49.44.95-.02l39.02-38.97a.41.41 0 0 0 -.01-.59q-51-46.62-120.27-49.2a.24.24 0 0 0 -.25.24l-.01 55.21a.47.46 1.3 0 0 .45.46" stroke="#a98e0b"/><path d="m339.88 159.2c18.17 19.77 29.46 45.2 32 71.85q.36 3.76.57 7.64.03.56.6.56h56q.62 0 .6-.62-1.43-43.17-21.92-80.84-11.37-20.9-27.97-38.4-.34-.36-.69-.01l-39.17 39.05a.56.55-43.9 0 0 -.02.77" stroke="#a98e0b"/><path d="m186.1 219.79c9.21-22.83 29.32-38.66 53.94-41.32a.93.92-3.1 0 0 .83-.92v-48.75a.37.37 0 0 0 -.4-.37c-30.66 2.01-58.97 15.35-79.4 38.34q-27.12 30.53-29.31 71.94-.03.54.51.54h48.78q.72 0 .8-.71c.72-6.44 1.83-12.75 4.25-18.75" stroke="#2a3d09"/><path d="m251.63 178.34c14.07.97 26.44 6.14 37.5 15.32a.59.58-47.6 0 0 .79-.04l34.71-34.7a.27.26 44.2 0 0 -.01-.38q-31.18-27.97-73.31-30.19a.23.22-88.8 0 0 -.23.23l-.01 49.16a.6.6 0 0 0 .56.6" stroke="#a98e0b"/><path d="m297.28 201.72c8.72 10.42 13.74 23.06 14.83 36.75q.06.78.85.78h49q.31 0 .29-.3-2.09-41.72-29.55-72.54-.4-.45-.82-.03l-34.55 34.41a.69.69 0 0 0 -.05.93" stroke="#a98e0b"/><path d="m251.09 231q0 1.02.72.3l29.97-29.82a.48.48 0 0 0 -.06-.74q-3.98-2.73-7.71-5.16c-6.58-4.29-14.49-6.08-22.56-7.19a.34.33 3.8 0 0 -.38.33z" stroke="#a98e0b"/><path d="m227.07 191.89c-19.92 8.01-32.93 25.44-35.01 46.84q-.05.52.48.52h47.76q.57 0 .57-.57v-49.84a.42.41 83.5 0 0 -.51-.41c-4.45 1.01-9.06 1.75-13.29 3.46" stroke="#2a3d09"/><path d="m301.94 238.74c-1.02-11.15-5.18-21.39-12.05-30.12a.22.22 0 0 0 -.34-.02l-30.3 30.13q-.53.52.22.52h42q.52 0 .47-.51" stroke="#a98e0b"/><g stroke="#2a3d09"><path d="m173.15 410.95q30.28 13.6 67.03 15.31.69.03.69-.66l.01-57.25a.37.36 1.7 0 0 -.35-.36c-64.48-3.79-114.82-53.64-118.86-118.16a.43.43 0 0 0 -.43-.41l-56.66-.01q-.24 0-.23.25 1.57 45.1 22.73 82.82 29.84 53.2 86.07 78.47"/><path d="m131.94 250c3.71 58.69 50.18 104.44 108.59 107.74q.34.02.34-.33v-48.95q0-.53-.53-.6c-31.59-3.79-54.4-26.5-58.28-57.95a.56.56 0 0 0 -.56-.49h-49.01q-.59 0-.55.58"/><path d="m197.02 265.98q13.11 26.77 43.4 31.82a.39.38-85 0 0 .45-.38v-47.69a.31.31 0 0 0 -.31-.31l-48.02-.01q-.25 0-.22.26 1.02 8.8 4.7 16.31"/><path d="m297.83 264.08q2.93-6.53 3.84-14.46a.18.18 0 0 0 -.18-.21l-49.97.01a.4.4 0 0 0 -.4.4l-.01 47.72a.37.37 0 0 0 .44.36c4.23-.8 8.44-1.41 12.53-2.82q23.48-8.09 33.75-31"/><path d="m353.23 287.65q7.61-17.71 8.84-37.67.03-.56-.53-.56l-48.97-.01a.63.62-86.3 0 0 -.62.55c-3.99 31.96-28.24 55.28-60.33 57.97a.55.55 0 0 0 -.51.55v49.14a.25.25 0 0 0 .27.25q47.17-2.66 79.29-35.83 14.01-14.46 22.56-34.39"/><path d="m356.3 390.15c44.66-32.97 71.52-84.76 73.35-140.18a.53.53 0 0 0 -.53-.55l-56.32-.01q-.45 0-.47.45c-1.88 30.86-14.77 60.31-37.01 81.9q-34.68 33.66-83.82 36.3a.41.4-1.5 0 0 -.39.4v57.49q0 .35.35.34 58.6-2.01 104.84-36.14"/></g><path d="m154.34 96.66c-46.77 29.51-77.48 78.77-81.49 134.1q-.04.49.46.49h40.15q.52 0 .58-.52c6.5-63.59 54.89-112.67 118.45-119.86a.4.4 0 0 0 .36-.4v-39.44a.21.21 0 0 0 -.23-.21q-43.38 3.83-78.28 25.84" stroke="#034522"/><path d="m359.82 111.76c-28.53-23.97-63.32-38.32-100.32-40.99a.33.32-87.6 0 0 -.35.33l.03 38.93q0 .69.68.76c26.49 2.71 50.99 12.86 71.61 29.58a.43.42-47.7 0 0 .56-.03l27.82-27.8a.53.53 0 0 0 -.03-.78" stroke="#ffba1f"/><path d="m421.2 230.72c-2.92-36.98-17.53-71.62-41.76-99.82a.39.38-42.6 0 0 -.57-.02l-27.94 27.82q-.46.46-.05.96 25.06 31.13 29.09 71.14.05.46.51.46h40.22q.55 0 .5-.54" stroke="#ffba1f"/><path d="m221.97 139.18c-43.34 10.72-76.02 46.61-81.5 91.44q-.08.63.55.63h33.01q.61 0 .73-.6c5.65-29.71 27.79-52.86 57.45-59.07q.63-.14.63-.78l-.01-33q0-.6-.59-.53-5.14.64-10.27 1.91" stroke="#034522"/><path d="m312.67 158.93c-15.57-12-33.49-19.42-53.05-21.87q-.47-.06-.47.41l.03 33.08q0 .63.62.73 15.75 2.75 28.58 11.77.42.3.78-.07l23.55-23.5a.37.37 0 0 0 -.04-.55" stroke="#ffba1f"/><path d="m307.78 202.37c5.81 8.59 9.73 18.28 11.49 28.44q.08.45.53.45l33.19-.01q.58 0 .51-.57-3.36-28.79-21.44-52.57a.36.36 0 0 0 -.55-.04l-23.65 23.54a.61.6-39.2 0 0 -.08.76" stroke="#ffba1f"/><path d="m269.58 202.33a.33.33 0 0 0 -.1-.54l-9.89-4.1a.33.33 0 0 0 -.45.31l.04 13.88a.33.33 0 0 0 .56.23z" stroke="#ffba1f"/><path d="m229.3 199.58c-13.49 5.7-23.75 16.79-27.62 31q-.19.67.51.67h30.04q.61 0 .61-.61l-.01-31.62q0-.61-.58-.45-1.54.41-2.95 1.01" stroke="#034522"/><path d="m292.39 231.26a.33.33 0 0 0 .31-.45l-3.91-9.58a.33.33 0 0 0 -.54-.11l-9.58 9.5a.33.33 0 0 0 .23.56z" stroke="#ffba1f"/><g stroke="#034522"><path d="m232.22 375.3c-39.15-4.28-73.73-25.4-95.91-57.87q-17.98-26.35-22.01-59.48-.06-.53-.59-.53l-40.65.01q-.33 0-.3.33c4.76 57.58 36.61 108.05 86.29 137.07q33.17 19.37 73.15 22.96.63.05.63-.58l.01-41.22q0-.62-.62-.69"/><path d="m218.41 310.53q-34.59-15.5-43.27-52.61-.12-.5-.63-.5l-33.45.01a.33.32 86.1 0 0 -.32.37c7.04 48.04 43.62 84.23 91.56 91.22q.54.08.54-.47l-.01-33.1a.89.88-84.9 0 0 -.72-.87q-7.97-1.48-13.7-4.05"/><path d="m202.49 258.53q8.35 21.42 29.74 29.18a.45.45 0 0 0 .6-.42v-29.18q0-.69-.69-.69l-28.89.01q-1.19 0-.76 1.1"/><path d="m259.88 288.11c14.45-4.65 27.12-15.52 31.71-30.14q.17-.54-.39-.54l-31.47-.01q-.61 0-.61.61v29.53q0 .79.76.55"/><path d="m314.16 272.5q-16.37 34.8-54.42 42.47-.62.12-.62.75v33.09a.38.37-3.4 0 0 .42.37q32.12-4.07 56.12-24.08 30.95-25.81 37.63-67.01.11-.66-.56-.66l-33.23-.01q-.69 0-.83.68-1.79 8.62-4.51 14.4"/><path d="m379.64 258.01c-4.35 38.43-25.16 72.51-56.86 94.4q-28.08 19.41-63.14 23.04-.52.05-.52.58v41.42a.42.42 0 0 0 .46.42c54.81-4.2 103.7-32.81 133.79-78.53q23.89-36.3 27.87-81.15.07-.76-.69-.76l-40.25-.01q-.59 0-.66.59"/></g></g><path d="m239.64 0h14.84q53.79 1.86 100.15 24.37 79.19 38.47 117.96 119.47-.27-.05-.32.23-.02.14.06.34 18.3 40.02 21.09 84.16-.1.15-.35.12-.18-.03-.32-.16c-39.03-39-78.1-78.06-117.5-116.84-28.34-27.89-65.38-45.08-104.57-50.37q-9.12-1.23-18.91-1.38-12.17-.18-19.02.38-58.74 4.79-103.23 41.23-44.83 36.71-61.14 93.4-5.21 18.08-6.2 38.11-.41 8.16-.23 17.95.18 9.74 1.29 17.44 9.17 63.23 53 106.8 56.53 56.21 113.17 112.75-72.55-5.52-129.46-47.45-39.55-29.15-65.04-71.2-.32-.53-.74-.27-12.17-21.72-19.58-41.88-13.12-35.63-14.59-75.34v-15.37q3.65-83.76 56.2-147.29 29.88-36.12 72.43-59.32 50.92-27.77 111.01-29.88z" fill="#7ab21b"/><path d="m493.42 228.57q.37.52.38.93.47 15.35.15 30.26c-.07 3.12-.92 6.07-.98 9.22q-.06 3.12-.8 6.79-.19.94-.33 1.97-8 58.92-43.13 108.03-5.72 8-12.34 15.72-51.34 59.86-128.34 79.96c-6.78 1.77-14.11 3.06-21.29 4.35q-1.23.22-2.49.29c-2.14.11-4 .88-6.2.89-3.01.02-5.62.87-8.75.97q-4.09.14-9.37.64-7.37.69-26.42-.17-2.23-.1-4.1-.42-56.64-56.54-113.17-112.75-43.83-43.57-53-106.8-1.11-7.7-1.29-17.44-.18-9.79.23-17.95.99-20.03 6.2-38.11 16.31-56.69 61.14-93.4 44.49-36.44 103.23-41.23 6.85-.56 19.02-.38 9.79.15 18.91 1.38c39.19 5.29 76.23 22.48 104.57 50.37 39.4 38.78 78.47 77.84 117.5 116.84q.14.13.32.16.25.03.35-.12zm-371.8 10.07c2.4-65.48 53.93-116.78 118.78-120.37a.52.51 88.9 0 0 .49-.52v-55.03a.32.32 0 0 0 -.33-.32c-58.29 2.21-111.36 31.04-144.33 78.98q-29.77 43.28-31.92 97.22-.03.65.63.65h56.04q.61 0 .64-.61zm129.9-120.42c30.1 1.37 57.99 12.73 80.12 32.87q.49.44.95-.02l39.02-38.97a.41.41 0 0 0 -.01-.59q-51-46.62-120.27-49.2a.24.24 0 0 0 -.25.24l-.01 55.21a.47.46 1.3 0 0 .45.46zm88.36 40.98c18.17 19.77 29.46 45.2 32 71.85q.36 3.76.57 7.64.03.56.6.56h56q.62 0 .6-.62-1.43-43.17-21.92-80.84-11.37-20.9-27.97-38.4-.34-.36-.69-.01l-39.17 39.05a.56.55-43.9 0 0 -.02.77zm-153.78 60.59c9.21-22.83 29.32-38.66 53.94-41.32a.93.92-3.1 0 0 .83-.92v-48.75a.37.37 0 0 0 -.4-.37c-30.66 2.01-58.97 15.35-79.4 38.34q-27.12 30.53-29.31 71.94-.03.54.51.54h48.78q.72 0 .8-.71c.72-6.44 1.83-12.75 4.25-18.75zm65.53-41.45c14.07.97 26.44 6.14 37.5 15.32a.59.58-47.6 0 0 .79-.04l34.71-34.7a.27.26 44.2 0 0 -.01-.38q-31.18-27.97-73.31-30.19a.23.22-88.8 0 0 -.23.23l-.01 49.16a.6.6 0 0 0 .56.6zm45.65 23.38c8.72 10.42 13.74 23.06 14.83 36.75q.06.78.85.78h49q.31 0 .29-.3-2.09-41.72-29.55-72.54-.4-.45-.82-.03l-34.55 34.41a.69.69 0 0 0 -.05.93zm-46.19 29.28q0 1.02.72.3l29.97-29.82a.48.48 0 0 0 -.06-.74q-3.98-2.73-7.71-5.16c-6.58-4.29-14.49-6.08-22.56-7.19a.34.33 3.8 0 0 -.38.33zm-24.02-39.11c-19.92 8.01-32.93 25.44-35.01 46.84q-.05.52.48.52h47.76q.57 0 .57-.57v-49.84a.42.41 83.5 0 0 -.51-.41c-4.45 1.01-9.06 1.75-13.29 3.46zm74.87 46.85c-1.02-11.15-5.18-21.39-12.05-30.12a.22.22 0 0 0 -.34-.02l-30.3 30.13q-.53.52.22.52h42q.52 0 .47-.51zm-128.79 172.21q30.28 13.6 67.03 15.31.69.03.69-.66l.01-57.25a.37.36 1.7 0 0 -.35-.36c-64.48-3.79-114.82-53.64-118.86-118.16a.43.43 0 0 0 -.43-.41l-56.66-.01q-.24 0-.23.25 1.57 45.1 22.73 82.82 29.84 53.2 86.07 78.47zm-41.21-160.95c3.71 58.69 50.18 104.44 108.59 107.74q.34.02.34-.33v-48.95q0-.53-.53-.6c-31.59-3.79-54.4-26.5-58.28-57.95a.56.56 0 0 0 -.56-.49h-49.01q-.59 0-.55.58zm65.08 15.98q13.11 26.77 43.4 31.82a.39.38-85 0 0 .45-.38v-47.69a.31.31 0 0 0 -.31-.31l-48.02-.01q-.25 0-.22.26 1.02 8.8 4.7 16.31zm100.81-1.9q2.93-6.53 3.84-14.46a.18.18 0 0 0 -.18-.21l-49.97.01a.4.4 0 0 0 -.4.4l-.01 47.72a.37.37 0 0 0 .44.36c4.23-.8 8.44-1.41 12.53-2.82q23.48-8.09 33.75-31zm55.4 23.57q7.61-17.71 8.84-37.67.03-.56-.53-.56l-48.97-.01a.63.62-86.3 0 0 -.62.55c-3.99 31.96-28.24 55.28-60.33 57.97a.55.55 0 0 0 -.51.55v49.14a.25.25 0 0 0 .27.25q47.17-2.66 79.29-35.83 14.01-14.46 22.56-34.39zm3.07 102.5c44.66-32.97 71.52-84.76 73.35-140.18a.53.53 0 0 0 -.53-.55l-56.32-.01q-.45 0-.47.45c-1.88 30.86-14.77 60.31-37.01 81.9q-34.68 33.66-83.82 36.3a.41.4-1.5 0 0 -.39.4v57.49q0 .35.35.34 58.6-2.01 104.84-36.14z" fill="#537912"/><path d="m240.4 118.27c-64.85 3.59-116.38 54.89-118.78 120.37q-.03.61-.64.61h-56.04q-.66 0-.63-.65 2.15-53.94 31.92-97.22c32.97-47.94 86.04-76.77 144.33-78.98a.32.32 0 0 1 .33.32v55.03a.52.51 88.9 0 1 -.49.52zm-86.06-21.61c-46.77 29.51-77.48 78.77-81.49 134.1q-.04.49.46.49h40.15q.52 0 .58-.52c6.5-63.59 54.89-112.67 118.45-119.86a.4.4 0 0 0 .36-.4v-39.44a.21.21 0 0 0 -.23-.21q-43.38 3.83-78.28 25.84z"/><path d="m331.64 151.09c-22.13-20.14-50.02-31.5-80.12-32.87a.47.46 1.3 0 1 -.45-.46l.01-55.21a.24.24 0 0 1 .25-.24q69.27 2.58 120.27 49.2a.41.41 0 0 1 .01.59l-39.02 38.97q-.46.46-.95.02zm28.18-39.33c-28.53-23.97-63.32-38.32-100.32-40.99a.33.32-87.6 0 0 -.35.33l.03 38.93q0 .69.68.76c26.49 2.71 50.99 12.86 71.61 29.58a.43.42-47.7 0 0 .56-.03l27.82-27.8a.53.53 0 0 0 -.03-.78z" fill="#ffa304"/><path d="m72.85 230.76c4.01-55.33 34.72-104.59 81.49-134.1q34.9-22.01 78.28-25.84a.21.21 0 0 1 .23.21v39.44a.4.4 0 0 1 -.36.4c-63.56 7.19-111.95 56.27-118.45 119.86q-.06.52-.58.52h-40.15q-.5 0-.46-.49z" fill="#058943"/><path d="m259.5 70.77c37 2.67 71.79 17.02 100.32 40.99a.53.53 0 0 1 .03.78l-27.82 27.8a.43.42-47.7 0 1 -.56.03c-20.62-16.72-45.12-26.87-71.61-29.58q-.68-.07-.68-.76l-.03-38.93a.33.32-87.6 0 1 .35-.33z" fill="#ffd039"/><path d="m371.88 231.05c-2.54-26.65-13.83-52.08-32-71.85a.56.55-43.9 0 1 .02-.77l39.17-39.05q.35-.35.69.01 16.6 17.5 27.97 38.4 20.49 37.67 21.92 80.84.02.62-.6.62h-56q-.57 0-.6-.56-.21-3.88-.57-7.64zm49.32-.33c-2.92-36.98-17.53-71.62-41.76-99.82a.39.38-42.6 0 0 -.57-.02l-27.94 27.82q-.46.46-.05.96 25.06 31.13 29.09 71.14.05.46.51.46h40.22q.55 0 .5-.54z" fill="#ffa304"/><path d="m186.1 219.79c-2.42 6-3.53 12.31-4.25 18.75q-.08.71-.8.71h-48.78q-.54 0-.51-.54 2.19-41.41 29.31-71.94c20.43-22.99 48.74-36.33 79.4-38.34a.37.37 0 0 1 .4.37v48.75a.93.92-3.1 0 1 -.83.92c-24.62 2.66-44.73 18.49-53.94 41.32zm35.87-80.61c-43.34 10.72-76.02 46.61-81.5 91.44q-.08.63.55.63h33.01q.61 0 .73-.6c5.65-29.71 27.79-52.86 57.45-59.07q.63-.14.63-.78l-.01-33q0-.6-.59-.53-5.14.64-10.27 1.91z"/><path d="m289.13 193.66c-11.06-9.18-23.43-14.35-37.5-15.32a.6.6 0 0 1 -.56-.6l.01-49.16a.23.22-88.8 0 1 .23-.23q42.13 2.22 73.31 30.19a.27.26 44.2 0 1 .01.38l-34.71 34.7a.59.58-47.6 0 1 -.79.04zm23.54-34.73c-15.57-12-33.49-19.42-53.05-21.87q-.47-.06-.47.41l.03 33.08q0 .63.62.73 15.75 2.75 28.58 11.77.42.3.78-.07l23.55-23.5a.37.37 0 0 0 -.04-.55z" fill="#ffa304"/><path d="m379.44 130.9c24.23 28.2 38.84 62.84 41.76 99.82q.05.54-.5.54h-40.22q-.46 0-.51-.46-4.03-40.01-29.09-71.14-.41-.5.05-.96l27.94-27.82a.39.38-42.6 0 1 .57.02z" fill="#ffd039"/><path d="m259.62 137.06c19.56 2.45 37.48 9.87 53.05 21.87a.37.37 0 0 1 .04.55l-23.55 23.5q-.36.37-.78.07-12.83-9.02-28.58-11.77-.62-.1-.62-.73l-.03-33.08q0-.47.47-.41z" fill="#ffd039"/><path d="m140.47 230.62c5.48-44.83 38.16-80.72 81.5-91.44q5.13-1.27 10.27-1.91.59-.07.59.53l.01 33q0 .64-.63.78c-29.66 6.21-51.8 29.36-57.45 59.07q-.12.6-.73.6h-33.01q-.63 0-.55-.63z" fill="#058943"/><path d="m472.59 143.84q25.41 48.81 27.41 104.56v14.59q-2.13 58.94-29.59 108.69-24.32 44.06-62.46 74.27-64.25 50.89-147.77 54.05h-14.67q-59-2.13-109.45-29.09-65.84-35.18-101.89-101.83.42-.26.74.27 25.49 42.05 65.04 71.2 56.91 41.93 129.46 47.45 1.87.32 4.1.42 19.05.86 26.42.17 5.28-.5 9.37-.64c3.13-.1 5.74-.95 8.75-.97 2.2-.01 4.06-.78 6.2-.89q1.26-.07 2.49-.29c7.18-1.29 14.51-2.58 21.29-4.35q77-20.1 128.34-79.96 6.62-7.72 12.34-15.72 35.13-49.11 43.13-108.03.14-1.03.33-1.97.74-3.67.8-6.79c.06-3.15.91-6.1.98-9.22q.32-14.91-.15-30.26-.01-.41-.38-.93-2.79-44.14-21.09-84.16-.08-.2-.06-.34.05-.28.32-.23z" fill="#334a0b"/><path d="m312.11 238.47c-1.09-13.69-6.11-26.33-14.83-36.75a.69.69 0 0 1 .05-.93l34.55-34.41q.42-.42.82.03 27.46 30.82 29.55 72.54.02.3-.29.3h-49q-.79 0-.85-.78zm-4.33-36.1c5.81 8.59 9.73 18.28 11.49 28.44q.08.45.53.45l33.19-.01q.58 0 .51-.57-3.36-28.79-21.44-52.57a.36.36 0 0 0 -.55-.04l-23.65 23.54a.61.6-39.2 0 0 -.08.76z" fill="#ffa304"/><path d="m319.27 230.81c-1.76-10.16-5.68-19.85-11.49-28.44a.61.6-39.2 0 1 .08-.76l23.65-23.54a.36.36 0 0 1 .55.04q18.08 23.78 21.44 52.57.07.57-.51.57l-33.19.01q-.45 0-.53-.45z" fill="#ffd039"/><path d="m251.09 231-.02-42.28a.34.33 3.8 0 1 .38-.33c8.07 1.11 15.98 2.9 22.56 7.19q3.73 2.43 7.71 5.16a.48.48 0 0 1 .06.74l-29.97 29.82q-.72.72-.72-.3zm18.49-28.67a.33.33 0 0 0 -.1-.54l-9.89-4.1a.33.33 0 0 0 -.45.31l.04 13.88a.33.33 0 0 0 .56.23z" fill="#ffa304"/><path d="m192.06 238.73c2.08-21.4 15.09-38.83 35.01-46.84 4.23-1.71 8.84-2.45 13.29-3.46a.42.41 83.5 0 1 .51.41v49.84q0 .57-.57.57h-47.76q-.53 0-.48-.52zm37.24-39.15c-13.49 5.7-23.75 16.79-27.62 31q-.19.67.51.67h30.04q.61 0 .61-.61l-.01-31.62q0-.61-.58-.45-1.54.41-2.95 1.01z"/><path d="m269.58 202.33-9.84 9.78a.33.33 0 0 1 -.56-.23l-.04-13.88a.33.33 0 0 1 .45-.31l9.89 4.1a.33.33 0 0 1 .1.54z" fill="#ffd039"/><path d="m201.68 230.58c3.87-14.21 14.13-25.3 27.62-31q1.41-.6 2.95-1.01.58-.16.58.45l.01 31.62q0 .61-.61.61h-30.04q-.7 0-.51-.67z" fill="#058943"/><path d="m289.89 208.62c6.87 8.73 11.03 18.97 12.05 30.12q.05.51-.47.51h-42q-.75 0-.22-.52l30.3-30.13a.22.22 0 0 1 .34.02zm2.5 22.64a.33.33 0 0 0 .31-.45l-3.91-9.58a.33.33 0 0 0 -.54-.11l-9.58 9.5a.33.33 0 0 0 .23.56z" fill="#ffa304"/><path d="m292.39 231.26-13.49-.08a.33.33 0 0 1 -.23-.56l9.58-9.5a.33.33 0 0 1 .54.11l3.91 9.58a.33.33 0 0 1 -.31.45z" fill="#ffd039"/><path d="m173.15 410.95q-56.23-25.27-86.07-78.47-21.16-37.72-22.73-82.82-.01-.25.23-.25l56.66.01a.43.43 0 0 1 .43.41c4.04 64.52 54.38 114.37 118.86 118.16a.37.36 1.7 0 1 .35.36l-.01 57.25q0 .69-.69.66-36.75-1.71-67.03-15.31zm59.07-35.65c-39.15-4.28-73.73-25.4-95.91-57.87q-17.98-26.35-22.01-59.48-.06-.53-.59-.53l-40.65.01q-.33 0-.3.33c4.76 57.58 36.61 108.05 86.29 137.07q33.17 19.37 73.15 22.96.63.05.63-.58l.01-41.22q0-.62-.62-.69z"/><path d="m240.53 357.74c-58.41-3.3-104.88-49.05-108.59-107.74q-.04-.58.55-.58h49.01a.56.56 0 0 1 .56.49c3.88 31.45 26.69 54.16 58.28 57.95q.53.07.53.6v48.95q0 .35-.34.33zm-22.12-47.21q-34.59-15.5-43.27-52.61-.12-.5-.63-.5l-33.45.01a.33.32 86.1 0 0 -.32.37c7.04 48.04 43.62 84.23 91.56 91.22q.54.08.54-.47l-.01-33.1a.89.88-84.9 0 0 -.72-.87q-7.97-1.48-13.7-4.05z"/><path d="m197.02 265.98q-3.68-7.51-4.7-16.31-.03-.26.22-.26l48.02.01a.31.31 0 0 1 .31.31v47.69a.39.38-85 0 1 -.45.38q-30.29-5.05-43.4-31.82zm5.47-7.45q8.35 21.42 29.74 29.18a.45.45 0 0 0 .6-.42v-29.18q0-.69-.69-.69l-28.89.01q-1.19 0-.76 1.1z"/><path d="m297.83 264.08q-10.27 22.91-33.75 31c-4.09 1.41-8.3 2.02-12.53 2.82a.37.37 0 0 1 -.44-.36l.01-47.72a.4.4 0 0 1 .4-.4l49.97-.01a.18.18 0 0 1 .18.21q-.91 7.93-3.84 14.46zm-37.95 24.03c14.45-4.65 27.12-15.52 31.71-30.14q.17-.54-.39-.54l-31.47-.01q-.61 0-.61.61v29.53q0 .79.76.55z"/><path d="m353.23 287.65q-8.55 19.93-22.56 34.39-32.12 33.17-79.29 35.83a.25.25 0 0 1 -.27-.25v-49.14a.55.55 0 0 1 .51-.55c32.09-2.69 56.34-26.01 60.33-57.97a.63.62-86.3 0 1 .62-.55l48.97.01q.56 0 .53.56-1.23 19.96-8.84 37.67zm-39.07-15.15q-16.37 34.8-54.42 42.47-.62.12-.62.75v33.09a.38.37-3.4 0 0 .42.37q32.12-4.07 56.12-24.08 30.95-25.81 37.63-67.01.11-.66-.56-.66l-33.23-.01q-.69 0-.83.68-1.79 8.62-4.51 14.4z"/><path d="m429.65 249.97c-1.83 55.42-28.69 107.21-73.35 140.18q-46.24 34.13-104.84 36.14-.35.01-.35-.34v-57.49a.41.4-1.5 0 1 .39-.4q49.14-2.64 83.82-36.3c22.24-21.59 35.13-51.04 37.01-81.9q.02-.45.47-.45l56.32.01a.53.53 0 0 1 .53.55zm-50.01 8.04c-4.35 38.43-25.16 72.51-56.86 94.4q-28.08 19.41-63.14 23.04-.52.05-.52.58v41.42a.42.42 0 0 0 .46.42c54.81-4.2 103.7-32.81 133.79-78.53q23.89-36.3 27.87-81.15.07-.76-.69-.76l-40.25-.01q-.59 0-.66.59z"/><g fill="#058943"><path d="m203.25 257.43 28.89-.01q.69 0 .69.69v29.18a.45.45 0 0 1 -.6.42q-21.39-7.76-29.74-29.18-.43-1.1.76-1.1z"/><path d="m291.59 257.97c-4.59 14.62-17.26 25.49-31.71 30.14q-.76.24-.76-.55v-29.53q0-.61.61-.61l31.47.01q.56 0 .39.54z"/><path d="m314.16 272.5q2.72-5.78 4.51-14.4.14-.68.83-.68l33.23.01q.67 0 .56.66-6.68 41.2-37.63 67.01-24 20.01-56.12 24.08a.38.37-3.4 0 1 -.42-.37v-33.09q0-.63.62-.75 38.05-7.67 54.42-42.47z"/><path d="m322.78 352.41c31.7-21.89 52.51-55.97 56.86-94.4q.07-.59.66-.59l40.25.01q.76 0 .69.76-3.98 44.85-27.87 81.15c-30.09 45.72-78.98 74.33-133.79 78.53a.42.42 0 0 1 -.46-.42v-41.42q0-.53.52-.58 35.06-3.63 63.14-23.04z"/><path d="m136.31 317.43c22.18 32.47 56.76 53.59 95.91 57.87q.62.07.62.69l-.01 41.22q0 .63-.63.58-39.98-3.59-73.15-22.96c-49.68-29.02-81.53-79.49-86.29-137.07q-.03-.33.3-.33l40.65-.01q.53 0 .59.53 4.03 33.13 22.01 59.48z"/><path d="m218.41 310.53q5.73 2.57 13.7 4.05a.89.88-84.9 0 1 .72.87l.01 33.1q0 .55-.54.47c-47.94-6.99-84.52-43.18-91.56-91.22a.33.32 86.1 0 1 .32-.37l33.45-.01q.51 0 .63.5 8.68 37.11 43.27 52.61z"/></g></svg>